<?xml version="1.0" standalone="no"?>
<svg width="5000" height="1000" version="1.1" xmlns="http://www.w3.org/2000/svg">
<polyline stroke="black" stroke-width="2" fill="transparent"
points="122.5 611.0 122.5 686.0 "/>
<polyline stroke="black" stroke-width="2" fill="transparent"
points="126.1 611.0 168.9 678.9 "/>
<polyline stroke="black" stroke-width="2" fill="transparent"
points="126.1 618.1 168.9 686.0 "/>
<polyline stroke="black" stroke-width="2" fill="transparent"
points="168.9 611.0 168.9 686.0 "/>
<polyline stroke="black" stroke-width="2" fill="transparent"
points="111.8 611.0 126.1 611.0 "/>
<polyline stroke="black" stroke-width="2" fill="transparent"
points="158.2 611.0 179.60000000000002 611.0 "/>
<polyline stroke="black" stroke-width="2" fill="transparent"
points="111.8 686.0 133.2 686.0 "/>
<polyline stroke="black" stroke-width="2" fill="transparent"
points="204.60000000000002 611.0 201.1 614.6 204.60000000000002 618.1 208.2 614.6 204.60000000000002 611.0 "/>
<polyline stroke="black" stroke-width="2" fill="transparent"
points="204.60000000000002 636.0 204.60000000000002 686.0 "/>
<polyline stroke="black" stroke-width="2" fill="transparent"
points="208.2 636.0 208.2 686.0 "/>
<polyline stroke="black" stroke-width="2" fill="transparent"
points="193.9 636.0 208.2 636.0 "/>
<polyline stroke="black" stroke-width="2" fill="transparent"
points="193.9 686.0 218.9 686.0 "/>
<polyline stroke="black" stroke-width="2" fill="transparent"
points="279.6 646.7 276.1 650.3 279.6 653.9 283.2 650.3 283.2 646.7 276.1 639.6 268.9 636.0 258.2 636.0 247.5 639.6 240.39999999999998 646.7 236.8 657.4 236.8 664.5999999999999 240.39999999999998 675.3 247.5 682.4 258.2 686.0 265.4 686.0 276.1 682.4 283.2 675.3 "/>
<polyline stroke="black" stroke-width="2" fill="transparent"
points="258.2 636.0 251.1 639.6 243.9 646.7 240.39999999999998 657.4 240.39999999999998 664.5999999999999 243.9 675.3 251.1 682.4 258.2 686.0 "/>
<polyline stroke="black" stroke-width="2" fill="transparent"
points="311.8 611.0 311.8 686.0 "/>
<polyline stroke="black" stroke-width="2" fill="transparent"
points="315.4 611.0 315.4 686.0 "/>
<polyline stroke="black" stroke-width="2" fill="transparent"
points="351.1 636.0 315.4 671.7 "/>
<polyline stroke="black" stroke-width="2" fill="transparent"
points="333.2 657.4 354.6 686.0 "/>
<polyline stroke="black" stroke-width="2" fill="transparent"
points="329.6 657.4 351.1 686.0 "/>
<polyline stroke="black" stroke-width="2" fill="transparent"
points="301.1 611.0 315.4 611.0 "/>
<polyline stroke="black" stroke-width="2" fill="transparent"
points="340.4 636.0 361.8 636.0 "/>
<polyline stroke="black" stroke-width="2" fill="transparent"
points="301.1 686.0 326.1 686.0 "/>
<polyline stroke="black" stroke-width="2" fill="transparent"
points="340.4 686.0 361.8 686.0 "/>
<polyline stroke="black" stroke-width="2" fill="transparent"
points="386.8 611.0 383.2 614.6 386.8 618.1 390.4 614.6 386.8 611.0 "/>
<polyline stroke="black" stroke-width="2" fill="transparent"
points="386.8 636.0 386.8 686.0 "/>
<polyline stroke="black" stroke-width="2" fill="transparent"
points="390.4 636.0 390.4 686.0 "/>
<polyline stroke="black" stroke-width="2" fill="transparent"
points="376.1 636.0 390.4 636.0 "/>
<polyline stroke="black" stroke-width="2" fill="transparent"
points="376.1 686.0 401.1 686.0 "/>
<polyline stroke="black" stroke-width="2" fill="transparent"
points="476.1 611.0 501.1 686.0 "/>
<polyline stroke="black" stroke-width="2" fill="transparent"
points="479.6 611.0 501.1 675.3 "/>
<polyline stroke="black" stroke-width="2" fill="transparent"
points="526.1 611.0 501.1 686.0 "/>
<polyline stroke="black" stroke-width="2" fill="transparent"
points="468.9 611.0 490.4 611.0 "/>
<polyline stroke="black" stroke-width="2" fill="transparent"
points="511.8 611.0 533.2 611.0 "/>
<polyline stroke="black" stroke-width="2" fill="transparent"
points="551.1 657.4 593.9 657.4 593.9 650.3 590.4 643.1 586.8 639.6 579.6 636.0 568.9 636.0 558.2 639.6 551.1 646.7 547.5 657.4 547.5 664.5999999999999 551.1 675.3 558.2 682.4 568.9 686.0 576.1 686.0 586.8 682.4 593.9 675.3 "/>
<polyline stroke="black" stroke-width="2" fill="transparent"
points="590.4 657.4 590.4 646.7 586.8 639.6 "/>
<polyline stroke="black" stroke-width="2" fill="transparent"
points="568.9 636.0 561.8 639.6 554.6 646.7 551.1 657.4 551.1 664.5999999999999 554.6 675.3 561.8 682.4 568.9 686.0 "/>
<polyline stroke="black" stroke-width="2" fill="transparent"
points="658.1999999999999 611.0 658.1999999999999 686.0 "/>
<polyline stroke="black" stroke-width="2" fill="transparent"
points="661.8000000000001 611.0 661.8000000000001 686.0 "/>
<polyline stroke="black" stroke-width="2" fill="transparent"
points="658.1999999999999 646.7 651.1 639.6 643.9 636.0 636.8 636.0 626.1 639.6 618.9 646.7 615.4 657.4 615.4 664.5999999999999 618.9 675.3 626.1 682.4 636.8 686.0 643.9 686.0 651.1 682.4 658.1999999999999 675.3 "/>
<polyline stroke="black" stroke-width="2" fill="transparent"
points="636.8 636.0 629.6 639.6 622.5 646.7 618.9 657.4 618.9 664.5999999999999 622.5 675.3 629.6 682.4 636.8 686.0 "/>
<polyline stroke="black" stroke-width="2" fill="transparent"
points="647.5 611.0 661.8000000000001 611.0 "/>
<polyline stroke="black" stroke-width="2" fill="transparent"
points="658.1999999999999 686.0 672.5 686.0 "/>
<polyline stroke="black" stroke-width="2" fill="transparent"
points="733.1999999999999 611.0 733.1999999999999 686.0 "/>
<polyline stroke="black" stroke-width="2" fill="transparent"
points="736.8000000000001 611.0 736.8000000000001 686.0 "/>
<polyline stroke="black" stroke-width="2" fill="transparent"
points="733.1999999999999 646.7 726.1 639.6 718.9 636.0 711.8000000000001 636.0 701.1 639.6 693.9 646.7 690.4000000000001 657.4 690.4000000000001 664.5999999999999 693.9 675.3 701.1 682.4 711.8000000000001 686.0 718.9 686.0 726.1 682.4 733.1999999999999 675.3 "/>
<polyline stroke="black" stroke-width="2" fill="transparent"
points="711.8000000000001 636.0 704.5999999999999 639.6 697.5 646.7 693.9 657.4 693.9 664.5999999999999 697.5 675.3 704.5999999999999 682.4 711.8000000000001 686.0 "/>
<polyline stroke="black" stroke-width="2" fill="transparent"
points="722.5 611.0 736.8000000000001 611.0 "/>
<polyline stroke="black" stroke-width="2" fill="transparent"
points="733.1999999999999 686.0 747.5 686.0 "/>
<polyline stroke="black" stroke-width="2" fill="transparent"
points="768.9 657.4 811.8000000000001 657.4 811.8000000000001 650.3 808.1999999999999 643.1 804.5999999999999 639.6 797.5 636.0 786.8000000000001 636.0 776.1 639.6 768.9 646.7 765.4000000000001 657.4 765.4000000000001 664.5999999999999 768.9 675.3 776.1 682.4 786.8000000000001 686.0 793.9 686.0 804.5999999999999 682.4 811.8000000000001 675.3 "/>
<polyline stroke="black" stroke-width="2" fill="transparent"
points="808.1999999999999 657.4 808.1999999999999 646.7 804.5999999999999 639.6 "/>
<polyline stroke="black" stroke-width="2" fill="transparent"
points="786.8000000000001 636.0 779.5999999999999 639.6 772.5 646.7 768.9 657.4 768.9 664.5999999999999 772.5 675.3 779.5999999999999 682.4 786.8000000000001 686.0 "/>
<polyline stroke="black" stroke-width="2" fill="transparent"
points="840.4000000000001 636.0 840.4000000000001 686.0 "/>
<polyline stroke="black" stroke-width="2" fill="transparent"
points="843.9 636.0 843.9 686.0 "/>
<polyline stroke="black" stroke-width="2" fill="transparent"
points="843.9 657.4 847.5 646.7 854.5999999999999 639.6 861.8000000000001 636.0 872.5 636.0 876.1 639.6 876.1 643.1 872.5 646.7 868.9 643.1 872.5 639.6 "/>
<polyline stroke="black" stroke-width="2" fill="transparent"
points="829.5999999999999 636.0 843.9 636.0 "/>
<polyline stroke="black" stroke-width="2" fill="transparent"
points="829.5999999999999 686.0 854.5999999999999 686.0 "/>
<polyline stroke="black" stroke-width="2" fill="transparent"
points="958.1999999999999 611.0 958.1999999999999 686.0 "/>
<polyline stroke="black" stroke-width="2" fill="transparent"
points="961.8000000000001 611.0 961.8000000000001 686.0 "/>
<polyline stroke="black" stroke-width="2" fill="transparent"
points="947.5 611.0 990.4000000000001 611.0 1001.1 614.6 1004.5999999999999 618.1 1008.1999999999999 625.3 1008.1999999999999 636.0 1004.5999999999999 643.1 1001.1 646.7 990.4000000000001 650.3 961.8000000000001 650.3 "/>
<polyline stroke="black" stroke-width="2" fill="transparent"
points="990.4000000000001 611.0 997.5 614.6 1001.1 618.1 1004.5999999999999 625.3 1004.5999999999999 636.0 1001.1 643.1 997.5 646.7 990.4000000000001 650.3 "/>
<polyline stroke="black" stroke-width="2" fill="transparent"
points="947.5 686.0 972.5 686.0 "/>
<polyline stroke="black" stroke-width="2" fill="transparent"
points="1054.6 611.0 1029.6 686.0 "/>
<polyline stroke="black" stroke-width="2" fill="transparent"
points="1054.6 611.0 1079.6 686.0 "/>
<polyline stroke="black" stroke-width="2" fill="transparent"
points="1054.6 621.7 1076.1 686.0 "/>
<polyline stroke="black" stroke-width="2" fill="transparent"
points="1036.8000000000002 664.5999999999999 1068.9 664.5999999999999 "/>
<polyline stroke="black" stroke-width="2" fill="transparent"
points="1022.5 686.0 1043.9 686.0 "/>
<polyline stroke="black" stroke-width="2" fill="transparent"
points="1065.4 686.0 1086.8000000000002 686.0 "/>
<polyline stroke="black" stroke-width="2" fill="transparent"
points="1101.1 611.0 1147.5 686.0 "/>
<polyline stroke="black" stroke-width="2" fill="transparent"
points="1104.6 611.0 1151.1 686.0 "/>
<polyline stroke="black" stroke-width="2" fill="transparent"
points="1151.1 611.0 1101.1 686.0 "/>
<polyline stroke="black" stroke-width="2" fill="transparent"
points="1093.9 611.0 1115.4 611.0 "/>
<polyline stroke="black" stroke-width="2" fill="transparent"
points="1136.8000000000002 611.0 1158.1999999999998 611.0 "/>
<polyline stroke="black" stroke-width="2" fill="transparent"
points="1093.9 686.0 1115.4 686.0 "/>
<polyline stroke="black" stroke-width="2" fill="transparent"
points="1136.8000000000002 686.0 1158.1999999999998 686.0 "/>
<polyline stroke="black" stroke-width="2" fill="transparent"
points="185.0 781.0 185.0 856.0 "/>
<polyline stroke="black" stroke-width="2" fill="transparent"
points="188.6 781.0 210.0 845.3 "/>
<polyline stroke="black" stroke-width="2" fill="transparent"
points="185.0 781.0 210.0 856.0 "/>
<polyline stroke="black" stroke-width="2" fill="transparent"
points="235.0 781.0 210.0 856.0 "/>
<polyline stroke="black" stroke-width="2" fill="transparent"
points="235.0 781.0 235.0 856.0 "/>
<polyline stroke="black" stroke-width="2" fill="transparent"
points="238.6 781.0 238.6 856.0 "/>
<polyline stroke="black" stroke-width="2" fill="transparent"
points="174.3 781.0 188.6 781.0 "/>
<polyline stroke="black" stroke-width="2" fill="transparent"
points="235.0 781.0 249.3 781.0 "/>
<polyline stroke="black" stroke-width="2" fill="transparent"
points="174.3 856.0 195.7 856.0 "/>
<polyline stroke="black" stroke-width="2" fill="transparent"
points="224.3 856.0 249.3 856.0 "/>
<polyline stroke="black" stroke-width="2" fill="transparent"
points="274.3 813.1 274.3 816.7 270.7 816.7 270.7 813.1 274.3 809.5999999999999 281.4 806.0 295.7 806.0 302.9 809.5999999999999 306.4 813.1 310.0 820.3 310.0 845.3 313.6 852.4 317.1 856.0 "/>
<polyline stroke="black" stroke-width="2" fill="transparent"
points="306.4 813.1 306.4 845.3 310.0 852.4 317.1 856.0 320.7 856.0 "/>
<polyline stroke="black" stroke-width="2" fill="transparent"
points="306.4 820.3 302.9 823.9 281.4 827.4 270.7 831.0 267.1 838.1 267.1 845.3 270.7 852.4 281.4 856.0 292.1 856.0 299.3 852.4 306.4 845.3 "/>
<polyline stroke="black" stroke-width="2" fill="transparent"
points="281.4 827.4 274.3 831.0 270.7 838.1 270.7 845.3 274.3 852.4 281.4 856.0 "/>
<polyline stroke="black" stroke-width="2" fill="transparent"
points="345.7 806.0 345.7 856.0 "/>
<polyline stroke="black" stroke-width="2" fill="transparent"
points="349.3 806.0 349.3 856.0 "/>
<polyline stroke="black" stroke-width="2" fill="transparent"
points="349.3 827.4 352.9 816.7 360.0 809.5999999999999 367.1 806.0 377.9 806.0 381.4 809.5999999999999 381.4 813.1 377.9 816.7 374.3 813.1 377.9 809.5999999999999 "/>
<polyline stroke="black" stroke-width="2" fill="transparent"
points="335.0 806.0 349.3 806.0 "/>
<polyline stroke="black" stroke-width="2" fill="transparent"
points="335.0 856.0 360.0 856.0 "/>
<polyline stroke="black" stroke-width="2" fill="transparent"
points="442.1 816.7 438.6 820.3 442.1 823.9 445.7 820.3 445.7 816.7 438.6 809.5999999999999 431.4 806.0 420.7 806.0 410.0 809.5999999999999 402.9 816.7 399.3 827.4 399.3 834.5999999999999 402.9 845.3 410.0 852.4 420.7 856.0 427.9 856.0 438.6 852.4 445.7 845.3 "/>
<polyline stroke="black" stroke-width="2" fill="transparent"
points="420.7 806.0 413.6 809.5999999999999 406.4 816.7 402.9 827.4 402.9 834.5999999999999 406.4 845.3 413.6 852.4 420.7 856.0 "/>
<polyline stroke="black" stroke-width="2" fill="transparent"
points="474.3 781.0 474.3 856.0 "/>
<polyline stroke="black" stroke-width="2" fill="transparent"
points="477.9 781.0 477.9 856.0 "/>
<polyline stroke="black" stroke-width="2" fill="transparent"
points="477.9 816.7 485.0 809.5999999999999 495.7 806.0 502.9 806.0 513.6 809.5999999999999 517.1 816.7 517.1 856.0 "/>
<polyline stroke="black" stroke-width="2" fill="transparent"
points="502.9 806.0 510.0 809.5999999999999 513.6 816.7 513.6 856.0 "/>
<polyline stroke="black" stroke-width="2" fill="transparent"
points="463.6 781.0 477.9 781.0 "/>
<polyline stroke="black" stroke-width="2" fill="transparent"
points="463.6 856.0 488.6 856.0 "/>
<polyline stroke="black" stroke-width="2" fill="transparent"
points="502.9 856.0 527.9 856.0 "/>
<polyline stroke="black" stroke-width="2" fill="transparent"
points="613.6 795.3 620.7 791.7 631.4 781.0 631.4 856.0 "/>
<polyline stroke="black" stroke-width="2" fill="transparent"
points="627.9 784.5999999999999 627.9 856.0 "/>
<polyline stroke="black" stroke-width="2" fill="transparent"
points="613.6 856.0 645.6999999999999 856.0 "/>
<polyline stroke="black" stroke-width="2" fill="transparent"
points="695.6999999999999 781.0 685.0 784.5999999999999 677.9000000000001 795.3 674.3000000000001 813.1 674.3000000000001 823.9 677.9000000000001 841.7 685.0 852.4 695.6999999999999 856.0 702.9000000000001 856.0 713.6 852.4 720.6999999999999 841.7 724.3000000000001 823.9 724.3000000000001 813.1 720.6999999999999 795.3 713.6 784.5999999999999 702.9000000000001 781.0 695.6999999999999 781.0 "/>
<polyline stroke="black" stroke-width="2" fill="transparent"
points="695.6999999999999 781.0 688.6 784.5999999999999 685.0 788.1 681.4 795.3 677.9000000000001 813.1 677.9000000000001 823.9 681.4 841.7 685.0 848.9 688.6 852.4 695.6999999999999 856.0 "/>
<polyline stroke="black" stroke-width="2" fill="transparent"
points="702.9000000000001 856.0 710.0 852.4 713.6 848.9 717.0999999999999 841.7 720.6999999999999 823.9 720.6999999999999 813.1 717.0999999999999 795.3 713.6 788.1 710.0 784.5999999999999 702.9000000000001 781.0 "/>
<polyline stroke="black" stroke-width="2" fill="transparent"
points="752.9000000000001 841.7 749.3000000000001 845.3 745.6999999999999 841.7 749.3000000000001 838.1 752.9000000000001 841.7 752.9000000000001 848.9 745.6999999999999 856.0 "/>
<polyline stroke="black" stroke-width="2" fill="transparent"
points="835.0 795.3 838.6 798.9 835.0 802.4 831.4 798.9 831.4 795.3 835.0 788.1 838.6 784.5999999999999 849.3000000000001 781.0 863.6 781.0 874.3000000000001 784.5999999999999 877.9000000000001 788.1 881.4 795.3 881.4 802.4 877.9000000000001 809.5999999999999 867.0999999999999 816.7 849.3000000000001 823.9 842.0999999999999 827.4 835.0 834.5999999999999 831.4 845.3 831.4 856.0 "/>
<polyline stroke="black" stroke-width="2" fill="transparent"
points="863.6 781.0 870.6999999999999 784.5999999999999 874.3000000000001 788.1 877.9000000000001 795.3 877.9000000000001 802.4 874.3000000000001 809.5999999999999 863.6 816.7 849.3000000000001 823.9 "/>
<polyline stroke="black" stroke-width="2" fill="transparent"
points="831.4 848.9 835.0 845.3 842.0999999999999 845.3 860.0 852.4 870.6999999999999 852.4 877.9000000000001 848.9 881.4 845.3 "/>
<polyline stroke="black" stroke-width="2" fill="transparent"
points="842.0999999999999 845.3 860.0 856.0 874.3000000000001 856.0 877.9000000000001 852.4 881.4 845.3 881.4 838.1 "/>
<polyline stroke="black" stroke-width="2" fill="transparent"
points="924.3000000000001 781.0 913.6 784.5999999999999 906.4 795.3 902.9000000000001 813.1 902.9000000000001 823.9 906.4 841.7 913.6 852.4 924.3000000000001 856.0 931.4 856.0 942.0999999999999 852.4 949.3000000000001 841.7 952.9000000000001 823.9 952.9000000000001 813.1 949.3000000000001 795.3 942.0999999999999 784.5999999999999 931.4 781.0 924.3000000000001 781.0 "/>
<polyline stroke="black" stroke-width="2" fill="transparent"
points="924.3000000000001 781.0 917.0999999999999 784.5999999999999 913.6 788.1 910.0 795.3 906.4 813.1 906.4 823.9 910.0 841.7 913.6 848.9 917.0999999999999 852.4 924.3000000000001 856.0 "/>
<polyline stroke="black" stroke-width="2" fill="transparent"
points="931.4 856.0 938.6 852.4 942.0999999999999 848.9 945.6999999999999 841.7 949.3000000000001 823.9 949.3000000000001 813.1 945.6999999999999 795.3 942.0999999999999 788.1 938.6 784.5999999999999 931.4 781.0 "/>
<polyline stroke="black" stroke-width="2" fill="transparent"
points="977.9000000000001 795.3 981.4 798.9 977.9000000000001 802.4 974.3000000000001 798.9 974.3000000000001 795.3 977.9000000000001 788.1 981.4 784.5999999999999 992.0999999999999 781.0 1006.4 781.0 1017.0999999999999 784.5999999999999 1020.6999999999999 788.1 1024.3000000000002 795.3 1024.3000000000002 802.4 1020.6999999999999 809.5999999999999 1010.0 816.7 992.0999999999999 823.9 985.0 827.4 977.9000000000001 834.5999999999999 974.3000000000001 845.3 974.3000000000001 856.0 "/>
<polyline stroke="black" stroke-width="2" fill="transparent"
points="1006.4 781.0 1013.6 784.5999999999999 1017.0999999999999 788.1 1020.6999999999999 795.3 1020.6999999999999 802.4 1017.0999999999999 809.5999999999999 1006.4 816.7 992.0999999999999 823.9 "/>
<polyline stroke="black" stroke-width="2" fill="transparent"
points="974.3000000000001 848.9 977.9000000000001 845.3 985.0 845.3 1002.9000000000001 852.4 1013.6 852.4 1020.6999999999999 848.9 1024.3000000000002 845.3 "/>
<polyline stroke="black" stroke-width="2" fill="transparent"
points="985.0 845.3 1002.9000000000001 856.0 1017.0999999999999 856.0 1020.6999999999999 852.4 1024.3000000000002 845.3 1024.3000000000002 838.1 "/>
<polyline stroke="black" stroke-width="2" fill="transparent"
points="1049.3000000000002 795.3 1052.9 798.9 1049.3000000000002 802.4 1045.6999999999998 798.9 1045.6999999999998 795.3 1049.3000000000002 788.1 1052.9 784.5999999999999 1063.6 781.0 1077.9 781.0 1088.6 784.5999999999999 1092.1 791.7 1092.1 802.4 1088.6 809.5999999999999 1077.9 813.1 1067.1 813.1 "/>
<polyline stroke="black" stroke-width="2" fill="transparent"
points="1077.9 781.0 1085.0 784.5999999999999 1088.6 791.7 1088.6 802.4 1085.0 809.5999999999999 1077.9 813.1 "/>
<polyline stroke="black" stroke-width="2" fill="transparent"
points="1077.9 813.1 1085.0 816.7 1092.1 823.9 1095.6999999999998 831.0 1095.6999999999998 841.7 1092.1 848.9 1088.6 852.4 1077.9 856.0 1063.6 856.0 1052.9 852.4 1049.3000000000002 848.9 1045.6999999999998 841.7 1045.6999999999998 838.1 1049.3000000000002 834.5999999999999 1052.9 838.1 1049.3000000000002 841.7 "/>
<polyline stroke="black" stroke-width="2" fill="transparent"
points="1088.6 820.3 1092.1 831.0 1092.1 841.7 1088.6 848.9 1085.0 852.4 1077.9 856.0 "/>
</svg>
